<svg width="51" height="20" viewBox="0 0 51 20" fill="none" xmlns="http://www.w3.org/2000/svg">
<path d="M12.331 0.661688V19.0674C12.3317 19.1093 12.3214 19.1506 12.3013 19.1874C12.2811 19.2241 12.2517 19.255 12.2161 19.277C12.1804 19.2989 12.1396 19.3112 12.0977 19.3127C12.0558 19.3141 12.0143 19.3046 11.9772 19.2851L8.50865 17.5483C8.46837 17.5284 8.43445 17.4976 8.41071 17.4594C8.38697 17.4212 8.37435 17.3772 8.37427 17.3323V2.39849C8.37435 2.35354 8.38697 2.30951 8.41071 2.27134C8.43445 2.23318 8.46837 2.20239 8.50865 2.18245L11.9772 0.445651C12.0141 0.426238 12.0555 0.416744 12.0973 0.418095C12.139 0.419446 12.1797 0.431597 12.2153 0.45336C12.251 0.475123 12.2803 0.505756 12.3006 0.542269C12.3209 0.578781 12.3314 0.619927 12.331 0.661688Z" fill="white"/>
<path d="M39.6486 7.25913V19.0697C39.6487 19.111 39.6382 19.1516 39.6181 19.1877C39.598 19.2238 39.569 19.2541 39.5338 19.2758C39.4987 19.2974 39.4586 19.3097 39.4173 19.3115C39.3761 19.3132 39.335 19.3044 39.2982 19.2858L35.8263 17.549C35.786 17.529 35.7521 17.4982 35.7283 17.4601C35.7046 17.4219 35.692 17.3779 35.6919 17.3329V7.25913C35.6919 7.19507 35.7173 7.13363 35.7626 7.08833C35.8079 7.04303 35.8694 7.01758 35.9334 7.01758H39.4071C39.4711 7.01758 39.5326 7.04303 39.5779 7.08833C39.6232 7.13363 39.6486 7.19507 39.6486 7.25913Z" fill="white"/>
<path d="M34.8974 18.6536L34.8294 18.7046C34.6029 18.8696 34.3593 19.0099 34.103 19.1231C33.9067 19.2092 33.7036 19.2786 33.4957 19.3306C32.9113 19.4814 32.3002 19.4965 31.7091 19.3747C31.1179 19.2529 30.5626 18.9974 30.0854 18.6278C29.6083 18.2582 29.2221 17.7843 28.9563 17.2424C28.6906 16.7005 28.5524 16.105 28.5524 15.5015V7.29038C28.5524 7.22661 28.5776 7.16543 28.6225 7.12018C28.6674 7.07493 28.7285 7.04928 28.7922 7.04883L31.0206 7.08455H32.2607C32.2743 7.08324 32.288 7.08324 32.3015 7.08455C32.3562 7.09554 32.4053 7.12509 32.4407 7.16818C32.476 7.21128 32.4954 7.26527 32.4955 7.321V10.1754C32.4943 10.1907 32.4943 10.2061 32.4955 10.2213V16.6531C32.4943 16.6684 32.4943 16.6838 32.4955 16.6991C32.5079 17.1777 32.7067 17.6326 33.0495 17.9668C33.3923 18.3011 33.8521 18.4883 34.3309 18.4886H34.7137H34.8106C34.8313 18.4843 34.8527 18.4868 34.8718 18.4958C34.8908 18.5048 34.9064 18.5198 34.9162 18.5384C34.926 18.557 34.9295 18.5784 34.9261 18.5991C34.9227 18.6199 34.9126 18.639 34.8974 18.6536Z" fill="white"/>
<path d="M7.50306 8.50785C7.28671 8.42106 7.05573 8.37659 6.82263 8.37686H6.54535C6.30344 8.37686 6.0639 8.42459 5.84047 8.51732C5.61703 8.61006 5.41409 8.74596 5.24327 8.91726C5.07245 9.08855 4.9371 9.29187 4.84499 9.51556C4.75288 9.73925 4.70581 9.97892 4.70648 10.2208V16.6526C4.70738 17.1397 4.90152 17.6066 5.24628 17.9507C5.59103 18.2948 6.05824 18.4881 6.54535 18.4881H6.92809H7.02505C7.04562 18.4859 7.06635 18.4904 7.08419 18.5009C7.10204 18.5113 7.11607 18.5272 7.12424 18.5462C7.13241 18.5652 7.13429 18.5863 7.12961 18.6065C7.12492 18.6266 7.11392 18.6447 7.0982 18.6582L7.03016 18.7092C6.43983 19.1374 5.74263 19.3939 5.0156 19.4506C4.28858 19.5073 3.56003 19.3619 2.91049 19.0304C2.26094 18.6989 1.71568 18.1944 1.33496 17.5724C0.954247 16.9504 0.7529 16.2353 0.753174 15.5061V11.1088C0.753174 8.91951 2.54611 7.07213 4.7337 7.08404C5.77341 7.09014 6.76867 7.50646 7.50306 8.24248C7.53878 8.2782 7.5762 8.31732 7.61022 8.35645C7.62294 8.37288 7.63005 8.39296 7.63049 8.41373C7.63094 8.4345 7.6247 8.45487 7.61269 8.47183C7.60069 8.48878 7.58356 8.50144 7.56382 8.50792C7.54408 8.51441 7.52278 8.51438 7.50306 8.50785Z" fill="white"/>
<path d="M50.8009 15.3338C50.8009 16.418 50.506 17.3156 49.9163 18.0266C49.8278 18.1287 49.7462 18.2239 49.6424 18.3192C48.9433 18.9996 48.0468 19.3654 46.9581 19.4351C46.955 19.4368 46.9515 19.4376 46.9479 19.4376C46.9444 19.4376 46.9409 19.4368 46.9377 19.4351L46.8356 19.4436C46.7642 19.4436 46.6911 19.4436 46.6179 19.4436H46.4138C45.713 19.4194 45.0157 19.3335 44.33 19.1868L44.2313 19.1663C43.7124 19.0319 43.2045 18.8593 42.7116 18.6499C42.3745 18.5066 42.1618 18.1747 42.1465 17.8087L42.0493 15.4752C42.0463 15.4018 42.1049 15.3406 42.1784 15.3406C42.2762 15.3406 42.3654 15.396 42.4106 15.4827C42.8925 16.4061 43.523 17.2444 44.2772 17.9637C44.9146 18.5693 45.5814 18.9293 46.2777 19.0439C46.439 19.0705 46.6024 19.0836 46.7659 19.083C46.8476 19.083 46.936 19.083 47.0109 19.0728H47.0517C47.0808 19.0724 47.1098 19.0696 47.1384 19.0643C47.291 19.0504 47.4412 19.0178 47.5858 18.9673C47.6467 18.9504 47.7064 18.9294 47.7644 18.9044C47.8104 18.8857 47.8563 18.867 47.8988 18.8448C47.9703 18.8091 48.0349 18.7717 48.1012 18.7309C48.2892 18.6087 48.4568 18.4577 48.598 18.2835C48.636 18.2406 48.6718 18.1958 48.7051 18.1491C48.7374 18.0998 48.7715 18.0538 48.8004 18.0062C48.9064 17.7575 48.958 17.4889 48.9518 17.2186C48.9655 16.9374 48.907 16.6575 48.782 16.4053C48.6569 16.1531 48.4694 15.9371 48.2373 15.7778C47.609 15.3779 46.9195 15.0837 46.196 14.9068C45.5484 14.7383 44.914 14.5228 44.2976 14.2621C43.982 14.1162 43.6832 13.9366 43.4063 13.7263C43.3263 13.6685 43.2464 13.6021 43.1664 13.5375C42.4463 12.941 42.0862 12.0161 42.0862 10.763C42.0841 10.3585 42.1479 9.95629 42.275 9.57226C42.2921 9.52633 42.3091 9.4804 42.3295 9.43447C42.3892 9.27893 42.4585 9.12724 42.537 8.98028C42.537 8.97177 42.5455 8.96157 42.5506 8.95136C42.7244 8.65121 42.9365 8.375 43.1817 8.12974C43.7035 7.61002 44.3709 7.26118 45.0954 7.12951C45.4489 7.05946 45.8085 7.02526 46.1688 7.02744C46.3712 7.02744 46.5822 7.03765 46.7914 7.05806C47.1547 7.09343 47.5151 7.15425 47.8699 7.24008C47.8831 7.24506 47.8968 7.24849 47.9107 7.25028C47.9992 7.2724 48.0995 7.29791 48.2067 7.33023C48.8044 7.51091 49.3862 7.74039 49.9463 8.01636C49.9519 8.01912 49.9554 8.02483 49.9554 8.03108L50.0048 9.43617L50.043 10.5757C50.0453 10.6455 49.9893 10.7035 49.9194 10.7035C49.8284 10.7035 49.745 10.6534 49.7009 10.5739C49.393 10.0189 49.0418 9.48885 48.6507 8.98879C48.4742 8.76328 48.2857 8.54749 48.0859 8.34238L48.04 8.29645C47.4367 7.69313 46.7812 7.39147 46.0736 7.39147C45.3659 7.39147 44.8165 7.55478 44.4252 7.88138C44.2366 8.04167 44.0868 8.2427 43.9872 8.4693C43.8876 8.6959 43.8408 8.94217 43.8502 9.18951C43.8417 9.44304 43.9021 9.69413 44.0249 9.91608C44.1477 10.138 44.3284 10.3226 44.5477 10.45C45.0825 10.771 45.6613 11.0123 46.2658 11.1662C46.3849 11.1968 46.4954 11.2274 46.606 11.258C47.0993 11.3924 47.431 11.4877 47.6079 11.5455C47.8211 11.6136 48.0859 11.7077 48.4023 11.8279C48.6736 11.9264 48.9337 12.0536 49.178 12.2072C49.4032 12.3573 49.6164 12.5245 49.8159 12.7073C50.0303 12.8951 50.2084 13.1206 50.3416 13.3725C50.6615 13.9756 50.8198 14.6513 50.8009 15.3338Z" fill="white"/>
<path d="M26.5775 13.3913C26.5775 13.3454 26.5775 13.2995 26.5775 13.2535C26.5775 13.2076 26.5775 13.1311 26.5775 13.0698C26.5775 13.0086 26.5775 12.9814 26.5775 12.9371C26.5775 12.8436 26.5673 12.7483 26.5571 12.6548L26.5469 12.551L26.5367 12.4711C26.5367 12.42 26.5299 12.369 26.5163 12.318C26.5163 12.2669 26.501 12.2159 26.4908 12.1666C26.4806 12.1172 26.4789 12.1002 26.472 12.0662C26.4652 12.0322 26.455 11.976 26.4448 11.9301C26.4193 11.8076 26.3887 11.6869 26.3547 11.5661L26.3138 11.4266L26.2662 11.282C26.2509 11.2344 26.2339 11.1884 26.2169 11.1408C26.1829 11.0472 26.1471 10.9537 26.108 10.8601L26.0621 10.7513C26.0366 10.6917 26.0094 10.6322 25.9804 10.5812C25.9515 10.5301 25.9141 10.4417 25.8767 10.3753C25.8018 10.229 25.7185 10.0844 25.63 9.94495C25.6045 9.90242 25.5773 9.86159 25.5501 9.82077C25.5024 9.74932 25.4548 9.67958 25.4038 9.60983L25.3306 9.50947L25.2847 9.44993C25.2575 9.41421 25.2303 9.37849 25.2013 9.34447C25.0772 9.19137 24.9479 9.04338 24.8101 8.90389L24.7182 8.81203C24.6434 8.73888 24.5685 8.66744 24.4903 8.59939C24.4546 8.56537 24.4171 8.53305 24.3797 8.50243L24.3542 8.48032C24.2873 8.42362 24.2193 8.36691 24.1501 8.31021L24.0327 8.22175C23.9136 8.1333 23.7911 8.04994 23.6653 7.97169C23.6244 7.94618 23.5819 7.91896 23.5394 7.89515L23.4118 7.8203C23.3676 7.79478 23.3251 7.77097 23.2808 7.74885C23.2366 7.72674 23.1941 7.70292 23.1498 7.68081C23.1056 7.6587 23.0597 7.63658 23.0155 7.61447C22.9712 7.59235 22.9253 7.57194 22.8794 7.55323L22.7433 7.49369C22.6497 7.45457 22.5579 7.41884 22.4626 7.38482L22.3214 7.33549L22.1768 7.28956L22.0322 7.24704C21.9353 7.21982 21.8366 7.1943 21.7379 7.17219L21.6189 7.14667L21.4386 7.11265C21.3365 7.09394 21.2361 7.07863 21.1324 7.06672L20.9793 7.04801L20.7547 7.0293H20.7037H20.5098H20.2308H20.0726C19.1004 7.07118 18.1515 7.33999 17.3018 7.81423C16.4521 8.28847 15.7252 8.95497 15.1791 9.76043C14.6331 10.5659 14.2832 11.4879 14.1573 12.4529C14.0314 13.4178 14.133 14.3987 14.4541 15.3173C14.7752 16.2359 15.3068 17.0666 16.0064 17.743C16.7059 18.4194 17.5541 18.9227 18.483 19.2126C19.4119 19.5025 20.3957 19.5711 21.3558 19.4127C22.316 19.2544 23.2257 18.8735 24.0123 18.3006L24.1109 18.2258C24.1909 18.1646 24.2709 18.105 24.3457 18.0421C24.3712 18.0234 24.395 18.003 24.4205 17.9808L24.4818 17.923L24.5005 17.9077C24.5071 17.9031 24.5134 17.898 24.5192 17.8924C24.5975 17.8226 24.674 17.7495 24.7489 17.6747C25.0977 17.3256 25.4045 16.9368 25.6628 16.5163C25.6669 16.5097 25.6691 16.5012 25.6642 16.4951C25.6617 16.492 25.6584 16.4895 25.6547 16.488C25.6509 16.4864 25.6469 16.4859 25.6428 16.4864C25.6388 16.4868 25.635 16.4883 25.6317 16.4907L25.6113 16.506L25.4157 16.6846C25.015 17.0868 24.5373 17.4041 24.0112 17.6175C23.4851 17.8309 22.9214 17.9359 22.3537 17.9264C21.6873 17.9268 21.0302 17.7697 20.436 17.4679C19.8418 17.166 19.3273 16.7281 18.9346 16.1896C18.7812 15.9834 18.6479 15.7629 18.5365 15.5313C18.2586 14.957 18.1149 14.327 18.1163 13.689V13.3913H26.5775ZM20.2393 7.59746C20.8005 7.59881 21.3383 7.82271 21.7347 8.22006C22.1311 8.61741 22.3537 9.15575 22.3537 9.717V13.1481H18.1197V9.717C18.1197 9.15486 18.3431 8.61575 18.7405 8.21826C19.138 7.82077 19.6772 7.59746 20.2393 7.59746Z" fill="white"/>
</svg>
